<svg version="1.1" id="Layer_1" xmlns="http://www.w3.org/2000/svg" xmlns:xlink="http://www.w3.org/1999/xlink" x="0px" y="0px" viewBox="0 0 333.4 44" style="enable-background:new 0 0 333.4 44;" xml:space="preserve">

<g>
	<polygon style="fill-rule:evenodd;clip-rule:evenodd;fill:#2E2E2E;" points="298.4,1.4 298.4,42.5 333.4,42.5 333.4,31.7 311.4,31.7 311.4,27.4 333.4,27.4 333.4,16.6 311.4,16.6 
		311.4,12.3 333.4,12.3 333.4,1.4 	"/>
	<polygon style="fill-rule:evenodd;clip-rule:evenodd;fill:#2E2E2E;" points="164.4,1.4 164.4,42.5 199.5,42.5 199.5,31.7 177.4,31.7 177.4,27.4 199.5,27.4 199.5,16.6 177.4,16.6 
		177.4,12.3 199.5,12.3 199.5,1.4 	"/>
	<polygon style="fill-rule:evenodd;clip-rule:evenodd;fill:#2E2E2E;" points="39.9,1.4 39.9,42.5 72.8,42.5 72.8,31.7 52.9,31.7 52.9,1.4 	"/>
	<polygon style="fill-rule:evenodd;clip-rule:evenodd;fill:#2E2E2E;" points="0,1.4 0,42.5 13,42.5 13,27.4 35.1,27.4 35.1,16.6 13,16.6 13,12.3 35.1,12.3 35.1,1.4 	"/>
	<path style="fill-rule:evenodd;clip-rule:evenodd;fill:#2E2E2E;" d="M146.5,1.4c7.3,0,13.4,7,13.4,13.4c0,6.4-3.3,10.1-7.9,12.2l9.7,15.5h-13.2L139,27.4h-6.1v15.1h-13V1.4H146.5z
		 M145.9,12.3c2.1,0,2.2,2.1,2.2,2.1s-0.1,2.2-1.9,2.2s-13.2,0-13.2,0v-4.3H145.9z"/>
	<path style="fill-rule:evenodd;clip-rule:evenodd;fill:#2E2E2E;" d="M94.2,0C106.8,0,117,9.9,117,22c0,12.1-10.2,22-22.8,22c-12.6,0-22.8-9.9-22.8-22C71.5,9.9,81.7,0,94.2,0
		L94.2,0z M94.2,11.5c5.6,0,10.2,4.7,10.2,10.5c0,5.8-4.6,10.5-10.2,10.5C88.6,32.4,84,27.7,84,22C84,16.2,88.6,11.5,94.2,11.5
		L94.2,11.5z"/>
	<polygon style="fill-rule:evenodd;clip-rule:evenodd;fill:#2E2E2E;" points="204.6,1.4 217.6,1.4 236.1,24.7 236.1,1.4 249.1,1.4 249.1,42.5 236.1,42.5 217.6,19.3 217.6,42.5 
		204.6,42.5 	"/>
	<path style="fill-rule:evenodd;clip-rule:evenodd;fill:#2E2E2E;" d="M280.7,16.7h-11.8c-1.5,0-2.7-1.2-2.7-2.7l0,0c0-1.5,1.2-2.7,2.7-2.7h9.2c0,0,2.1-0.1,2.7,2.4h12.9
		c-1.1-12-10.6-13.5-20-13.5c-6.1,0-12.9,0.1-17.2,5.4c-4.2,5.1-2.7,11.1-2.7,11.1c1,5.8,6.8,10.8,12.6,10.8h12c0,0,2.5,0.1,2.5,2.7
		c0,2.6-2.7,2.7-2.7,2.7h-9.3c0,0-2.2,0-2.6-2.4h-12.9c1.4,12.1,9.8,13.5,18.8,13.4c5.9,0,12.9,0.4,17.6-4.4
		c4.1-4.1,3.8-9.1,3.8-9.1C293.8,23.2,288,17,280.7,16.7L280.7,16.7z"/>
</g>
</svg>
